<svg width="1024" height="768"><g><path d="M491.6621098323394,358.02384050393334L491.6617720866775,358.0335122742613L491.661626364898,358.03350718554407L491.66196411056035,358.0238354152161Z"></path><path d="M491.66210706805896,358.0238447467341L491.66080037231904,358.02379911591356L491.6608054610351,358.02365339413484L491.6621121567764,358.02369902495616Z"></path><path d="M491.6453897642514,358.0232609656208L491.64340571272396,358.0231916810151L491.64341080144004,358.0230459592367L491.64539485296746,358.0231152438429Z"></path><path d="M491.65996534751457,358.02362405672454L491.6599180452513,358.02497861633833L491.6597723234713,358.02497352762043L491.6598196257364,358.0236189680069Z"></path><path d="M491.65985480692734,358.02497640800664L491.6585002473148,358.02492910574233L491.65850533603,358.0247833839637L491.6598598956439,358.02483068622814Z"></path><path d="M491.65862583386297,358.0247875918411L491.65857853159923,358.02614215145445L491.6584328098206,358.0261370627378L491.65848011208436,358.02478250312413Z"></path><path d="M491.65857865057114,358.02614215560914L491.65722409095724,358.0260948533456L491.65722917967423,358.025949131567L491.65858373928813,358.02599643383064Z"></path><path d="M491.6573116631298,358.02595201195265L491.65726436086607,358.0273065715654L491.657118639087,358.0273014828505L491.65716594135165,358.02594692323646Z"></path><path d="M491.65726270985033,358.02735726155663L491.6559081502364,358.02730995929267L491.6559132389525,358.0271642375144L491.6572677985655,358.0272115397785Z"></path><path d="M491.65600839386707,358.0271675603975L491.6559610916029,358.0285221200106L491.65581536982427,358.0285170312934L491.6558626720889,358.0271624716802Z"></path><path d="M491.65595839169464,358.02859943526687L491.65460383208165,358.02855213300325L491.6546089207968,358.0284064112243L491.6559634804121,358.02845371348826Z"></path><path d="M491.65472953760354,358.02841062325547L491.65468223533935,358.029765182869L491.6545365135603,358.02976009415215L491.65458381582357,358.02840553453893Z"></path><path d="M491.6510985259174,358.02960356210986L491.6500456290387,358.02956679413865L491.6500507177552,358.0294210723606L491.65110361463485,358.02945784032954Z"></path><path d="M491.6464391719096,358.02571823567325L491.6464864741738,358.02436367606026L491.6466241786775,358.02436848480716L491.6465768764142,358.02572304442083Z"></path><path d="M491.6477944201165,358.0257655619838L491.64643986050214,358.0257182597195L491.64644494921913,358.0255725379411L491.6477995088326,358.02561984020485Z"></path><path d="M491.6476054592831,358.026969275291L491.64765276154685,358.02561471567674L491.6477984833259,358.02561980439384L491.6477511810617,358.02697436400683Z"></path><path d="M491.6488073816904,358.0282723069563L491.6488546839546,358.02691774734194L491.6490004057341,358.0269228360587L491.6489531034704,358.02827739567374Z"></path><path d="M491.6499948932005,358.0295664723759L491.6500428426607,358.02819337945823L491.6501885644393,358.02819846817533L491.6501406149782,358.0295715610922Z"></path><path d="M491.65454765488994,358.0297649430147L491.6534135331517,358.02972533861055L491.6534186218678,358.0295796168323L491.654552743606,358.0296192212369Z"></path><path d="M491.6501614934573,358.0283195935815L491.64880693384293,358.02827229131674L491.6488120225604,358.02812656953745L491.65016658217337,358.02817387180176Z"></path><path d="M491.64895316264847,358.0270670857749L491.64759860303457,358.0270197835106L491.64760369175156,358.026874061732L491.64895825136546,358.0269213639963Z"></path><path d="M491.6466190899614,358.0245142065862L491.6452645303484,358.02446690432123L491.6452696190645,358.02432118254274L491.6466241786775,358.02436848480716Z"></path><path d="M491.6453970997218,358.0231153223011L491.6453497974576,358.0244698819149L491.645204075679,358.02446479319815L491.64525137794317,358.023110233584Z"></path><path d="M491.643547242581,358.0230737489111L491.6433189347049,358.02961163105385L491.6431732129263,358.02960654233664L491.64340152080104,358.0230686601948Z"></path><path d="M491.66275253052163,358.0336180839282L491.65865104128807,358.0334748567691L491.65865613000415,358.03332913499037L491.6627576192391,358.0334723621495Z"></path><path d="M491.6625460411974,358.0366693535573L491.66265720197134,358.03348612548746L491.66280292374995,358.0334912142034L491.66269176297646,358.0366744422738Z"></path><path d="M491.64217898183097,358.03275374029715L491.642067821057,358.0359369683672L491.6419220992775,358.0359318796503L491.64203326005145,358.0327486515797Z"></path><path d="M491.6625327933011,358.0366709696417L491.66139867156244,358.03663136523653L491.661403760279,358.0364856434592L491.6625378820172,358.0365252478621Z"></path><path d="M491.6430966971666,358.03597567820066L491.6419625754279,358.0359360737974L491.64196766414534,358.03579035201926L491.64310178588266,358.0358299564235Z"></path><path d="M491.6431227216399,358.03584725552184L491.6430319444521,358.03844677406187L491.6428862226735,358.03844168534476L491.64297699986037,358.0358421668052Z"></path><path d="M491.64303243725135,358.03837031848207L491.64294166006357,358.04096983702243L491.64279593828496,358.0409647483059L491.64288671547274,358.0383652297654Z"></path><path d="M491.6429233038448,358.0418901837861L491.6455228223854,358.04198096097423L491.64551773366793,358.0421266827532L491.64291821512825,358.04203590556574Z"></path><path d="M491.6429440533211,358.0409013031011L491.6429044489173,358.0420354248391L491.6427587271378,358.04203033612237L491.6427983315416,358.0408962143837Z"></path><path d="M491.6508308461466,358.04098312942267L491.6507912417428,358.0421172511607L491.6506455199642,358.0421121624439L491.6506851243671,358.04097804070636Z"></path><path d="M491.6531949218779,358.0412250538293L491.6531553174732,358.04235917556855L491.6530095956955,358.04235408685145L491.6530492000993,358.0412199651132Z"></path><path d="M491.6530649422698,358.04221012011624L491.6554449038558,358.042293230205L491.65543981513974,358.0424389519842L491.6530598535537,358.0423558418952Z"></path><path d="M491.6556346759271,358.0413087840369L491.6555950715242,358.04244290577526L491.6554493497447,358.04243781705804L491.6554889541485,358.04130369532015Z"></path><path d="M491.6613920806217,358.0364880425834L491.66136428553455,358.0372839897275L491.66121856375594,358.03727890101084L491.66124635884216,358.03648295386597Z"></path><path d="M491.6612978834596,358.0371797871545L491.6616319201589,358.0374136821704L491.6615482866341,358.03753312322374L491.66121424993344,358.03729922820787Z"></path><path d="M491.6616405492,358.03742020901257L491.6619506230272,358.0376713018471L491.6618588614415,358.0377846179681L491.6615487876129,358.03753352513377Z"></path><path d="M491.6619173758986,358.037637627482L491.66219950476034,358.0379197563444L491.6620964010949,358.03802286000973L491.66181427223273,358.0377407311471Z"></path><path d="M491.6621913488784,358.0379100767507L491.66244244171276,358.0382201505771L491.6623291255919,358.0383119121627L491.6620780327571,358.0380018383353Z"></path><path d="M491.66244981961836,358.0382249369716L491.6626729322543,358.0385557150571L491.6625520497864,358.03863725131237L491.6623289371514,358.03830647322616Z"></path><path d="M491.66267172692596,358.0385660204488L491.6628646962936,358.03892894304715L491.6627359531735,358.0389973969777L491.662542983805,358.03863447438084Z"></path><path d="M491.66286060425,358.0389342153468L491.6629970670251,358.03930914374087L491.6628600498784,358.03935901390423L491.6627235871024,358.03898408551004Z"></path><path d="M491.663001962007,358.0393175812286L491.66309848653555,358.0397047199697L491.66295700713044,358.03973999474726L491.66286048260145,358.0393528560064Z"></path><path d="M491.66309502082504,358.0396986674782L491.66314688570355,358.0399928078201L491.6630032902913,358.0400181275651L491.66295142541276,358.03972398722453Z"></path><path d="M491.66314658724696,358.0400013544953L491.66312840033106,358.0405221596317L491.66298267855154,358.0405170709149L491.66300086546835,358.0399962657789Z"></path><path d="M491.6631126779166,358.04087510883755L491.6629996558713,358.0412969128562L491.66285881364456,358.0412591742951L491.6629718356903,358.0408373702761Z"></path><path d="M491.6629955071039,358.04129262972424L491.6628525217088,358.0416651194115L491.6627163957851,358.0416128655637L491.66285938117926,358.0412403758771Z"></path><path d="M491.66284453313256,358.0416672557842L491.66266962722557,358.04202586603606L491.6625385735233,358.0419619468753L491.66271347943075,358.04160333662105Z"></path><path d="M491.6626580008906,358.0420287836016L491.66243885731865,358.0423794866257L491.6623152029156,358.0423022187788L491.66253434648615,358.04195151575425Z"></path><path d="M491.66242658130204,358.042381394176L491.6621682716068,358.0426854821418L491.6620571430112,358.04259108316353L491.6623154527065,358.0422869951964Z"></path><path d="M491.66216431736484,358.04269613639997L491.6618725142139,358.0429682472418L491.6617730716216,358.04286160811705L491.662064874773,358.0425894972766Z"></path><path d="M491.6618657945528,358.0429686460701L491.6616241590318,358.043144204554L491.66153845371036,358.0430262412966L491.66178008923134,358.04285068281513Z"></path><path d="M491.6631298303837,358.04048120826303L491.6631159058179,358.0408799556727L491.66297018403884,358.04087486695653L491.6629841086051,358.0404761195475Z"></path><path d="M491.6616256169423,358.0431375141949L491.6613692847923,358.0432915340891L491.66129418677974,358.04316655000866L491.6615505189293,358.0430125301143Z"></path><path d="M491.6613610342388,358.04329053841536L491.6610024239858,358.0434654443211L491.66093850482457,358.0433343906194L491.661297115078,358.04315948471276Z"></path><path d="M491.6609940788485,358.0434627774397L491.6606191504552,358.04359924021503L491.66056928029093,358.0434622230673L491.66094420868603,358.04332576029174Z"></path><path d="M491.6606142612295,358.0435939239334L491.6603201208891,358.043645788811L491.66029480114275,358.0435021933996L491.660588941485,358.0434503285213Z"></path><path d="M491.660340812768,358.0436358885788L491.6598319240675,358.04372561938715L491.6598066043225,358.04358202397486L491.6603154930217,358.04349229316756Z"></path><path d="M491.65943593410066,358.04371882510713L491.6590421378296,358.0436546543458L491.6590655889604,358.0435107419546L491.65945938523055,358.04357491271617Z"></path><path d="M491.65905081908204,358.0436493238309L491.6586429730646,358.0435400418195L491.6586807116255,358.04339919959295L491.6590885576434,358.0435084816032Z"></path><path d="M491.6586337594972,358.04353812640784L491.6582602848689,358.0433977337731L491.65831159119534,358.04326124790305L491.6586850658232,358.04340164053735Z"></path><path d="M491.65825538944955,358.0433886810274L491.65789863577993,358.0432100187494L491.65796392770335,358.04307964353484L491.65832068137115,358.0432583058124Z"></path><path d="M491.6579092183738,358.04320966329874L491.6575592542072,358.04297360948897L491.65764079046085,358.0428527270209L491.6579907546279,358.04308878083134Z"></path><path d="M491.6575507617199,358.0429672949962L491.657247827477,358.04270763322813L491.657342720569,358.04259692625897L491.65764565481277,358.0428565880277Z"></path><path d="M491.6572478326789,358.04270196571576L491.6570489688979,358.0424791166565L491.65715776085153,358.0423820339977L491.65735662463294,358.04260488305715Z"></path><path d="M491.65984209030876,358.0437275284087L491.65944334290043,358.0437136038421L491.6594484316156,358.04356788206303L491.65984717902575,358.0435818066301Z"></path><path d="M491.6570475628205,358.0424770966349L491.6566921580702,358.04209597169984L491.6567987971939,358.0419965291088L491.65715420194556,358.04237765404355Z"></path><path d="M491.6564871872147,358.04177420750955L491.65631856655864,358.0414125993466L491.6564507158437,358.0413509771231L491.6566193364997,358.04171258528675Z"></path><path d="M491.6567031468421,358.04211753487357L491.6564917141095,358.0417791717704L491.6566153685135,358.0417019039231L491.6568268012461,358.0420402670251Z"></path><path d="M491.6556245850775,358.0413085206086L491.6564447086089,358.04133715995386L491.6564396198928,358.04148288173235L491.65561949636094,358.0414542423878Z"></path><path d="M491.6430803858648,358.03778909447817L491.6456233019494,358.03787789506464L491.64561961045047,358.0379836057775L491.64307669436585,358.03789480519094Z"></path><path d="M491.645637943303,358.03787840635164L491.64552683564716,358.04106011334306L491.64542112493336,358.0410564218439L491.64553223259054,358.03787471485305Z"></path><path d="M491.65082051880427,358.04098276878415L491.65320048038984,358.0410658788729L491.6531953916724,358.04121160065256L491.6508154300868,358.0411284905621Z"></path><path d="M491.6484005739185,358.04201076461254L491.65078053550496,358.0420938747027L491.6507754467875,358.0422395964815L491.64839548520104,358.04215648639206Z"></path><path d="M491.64854485076376,358.04101272720493L491.64850524635904,358.04214684894305L491.64835952458134,358.04214176022674L491.64839912898424,358.0410076384883Z"></path><path d="M491.645546199044,358.04087153737885L491.6485311344436,358.0409757736197L491.64852604572616,358.041121495399L491.64554111032794,358.0410172591579Z"></path><path d="M491.6455698983232,358.0409587821398L491.64553029391936,358.0420929038786L491.64538457214076,358.0420878151617L491.64542417654457,358.0409536934227Z"></path><path d="M491.64320146733235,358.03281444142135L491.64566694943187,358.03290053795354L491.6456632579325,358.0330062486654L491.64319777583387,358.0329201521338Z"></path><path d="M491.6464521986818,358.0283760479772L491.64640309143306,358.0297822956152L491.6462973807197,358.0297786041166L491.64634648796846,358.0283723564779Z"></path><path d="M491.65105044351094,358.0309761385432L491.6469527455638,358.030833043778L491.6469564370632,358.0307273330649L491.65105413501124,358.03087042783136Z"></path><path d="M491.6431860038115,358.0295594826381L491.6463256400257,358.0296691211512L491.64632194852675,358.02977483186373L491.6431823123121,358.02966519335166Z"></path><path d="M491.6432860611926,358.03079606702283L491.64321443394556,358.03284720299837L491.64306871216786,358.03284211428183L491.643140339414,358.0307909783064Z"></path><path d="M491.64318929575666,358.0329217086953L491.64206934121285,358.0328825990199L491.64207442992983,358.0327368772424L491.64319438447274,358.032775986916Z"></path><path d="M491.6431418449097,358.0307500480943L491.6463060713404,358.0308605453163L491.64630237984056,358.0309662560302L491.64313815340984,358.030855758807Z"></path><path d="M491.65614518195525,358.0311540507304L491.65505403076213,358.03111594689017L491.6550577222615,358.0310102361781L491.6561488734551,358.03104834001715Z"></path><path d="M491.6554177571834,358.0310778940268L491.6554635609841,358.029766244774L491.6555692716979,358.0297699362728L491.6555234678963,358.0310815855265Z"></path><path d="M491.65614982712805,358.0298164323042L491.65468797306175,358.0297653832357L491.6546916645616,358.0296596725225L491.65615351862743,358.0297107215913Z"></path><path d="M491.65601628545437,358.03059347981423L491.65607100097714,358.0290266322585L491.65617671169,358.02903032375775L491.65612199616726,358.0305971713128Z"></path><path d="M491.65641785030266,358.0389278369131L491.6566104699373,358.0385497995934L491.6567403881363,358.0386159962219L491.6565477685008,358.0389940335408Z"></path><path d="M491.65661324493385,358.03856097353446L491.6568334008357,358.0382282202189L491.65695500514994,358.03830867593797L491.65673484924764,358.0386414292524Z"></path><path d="M491.65684323938467,358.0382283023166L491.6570888824417,358.03791389354103L491.65720378276364,358.0380036635113L491.65695813970706,358.03831807228755Z"></path><path d="M491.65709503275184,358.03790713658054L491.6573795781228,358.03761248122294L491.65748446549196,358.0377137697785L491.65719992012146,358.03800842513624Z"></path><path d="M491.6573885588473,358.0376145851603L491.6577050542255,358.0373716364718L491.6577938395426,358.03748729934046L491.65747734416436,358.0377302480299Z"></path><path d="M491.657711627915,358.0373644296242L491.65805178455184,358.03715589460876L491.6581279934312,358.0372802044577L491.65778783679525,358.0374887394736Z"></path><path d="M491.6580571765021,358.0371576403446L491.6583303345128,358.03703683799756L491.6583893086158,358.0371701901146L491.6581161506051,358.03729099246164Z"></path><path d="M491.65631556952803,358.0393183203761L491.65641209405794,358.03893118163376L491.65655357346213,358.03896645641146L491.6564570489336,358.03935359515333Z"></path><path d="M491.65824650819013,358.0370788395826L491.65861644570623,358.03692937512403L491.65867106731866,358.03706456836085L491.6583011298044,358.0372140328193Z"></path><path d="M491.6545155474746,358.0310802733403L491.6545443132309,358.03025652987435L491.65465002394376,358.03026022137317L491.65462125818885,358.03108396484026Z"></path><path d="M491.6533672322503,358.03105122293596L491.6534158939671,358.0296577337019L491.65352160468,358.02966142520233L491.65347294296316,358.031054914435Z"></path><path d="M491.6559836800202,358.0317603022752L491.65676833691305,358.03178770309705L491.6567665481439,358.0318389267734L491.6559818912506,358.0318115259513Z"></path><path d="M491.65770166860693,358.02939532564244L491.6576558382767,358.0307077345808L491.6576046146006,358.0307059458105L491.6576504449308,358.0293935368743Z"></path><path d="M491.65675299045506,358.03179056380793L491.65714933778645,358.03158861475674L491.65717260702377,358.0316342832051L491.6567762596919,358.0318362322581Z"></path><path d="M491.6571405461932,358.0315987759045L491.6574381962364,358.0312682020416L491.65747628604913,358.03130249826313L491.6571786360055,358.0316330721257Z"></path><path d="M491.6574385431968,358.0312761442435L491.6575986552216,358.0309619067L491.6576443236713,358.0309851759381L491.6574842116456,358.03129941348107Z"></path><path d="M491.65759359602043,358.0309826941369L491.6576030966289,358.03071063230277L491.657654320305,358.0307124210724L491.65764481969654,358.0309844829071Z"></path><path d="M491.65710275694073,358.0288704252139L491.6571553520357,358.0273642987718L491.6572610627486,358.02736799027184L491.6572084676536,358.02887411671315Z"></path><path d="M491.6587879855165,358.02755678945084L491.66077134481066,358.0276260498831L491.6607676533108,358.0277317605962L491.65878429401664,358.0276625001634Z"></path><path d="M491.6608247714844,358.0261312654683L491.66076945822806,358.02771522989656L491.6606637475152,358.0277115383967L491.66071906077104,358.02612757396855Z"></path><path d="M491.6609074830981,358.02379749511465L491.66086650384204,358.02497098745084L491.66076079313007,358.0249672959501L491.6608017723852,358.0237938036154Z"></path><path d="M491.65095131635417,358.0308648751401L491.650999978071,358.0294713859064L491.6511056887839,358.0294750774052L491.65105702706796,358.0308685666391Z"></path><path d="M491.65883839115077,358.02758417255643L491.65876394800443,358.02971594536825L491.6586582372911,358.02971225386943L491.65873268043833,358.0275804810574Z"></path><path d="M491.65876906339554,358.0304183245977L491.6587392938445,358.031270813001L491.6586335831312,358.0312671215031L491.65866335268174,358.03041463309773Z"></path><path d="M491.65863284910165,358.0312060703096L491.66022701519205,358.0312617398164L491.6602233236931,358.03136745052984L491.6586291576018,358.0313117810233Z"></path><path d="M491.65563877423347,358.0343435120259L491.6555563370239,358.03670420484366L491.65540478637377,358.03669891257834L491.6554872235829,358.0343382197615Z"></path><path d="M491.65503144467493,358.03432230361204L491.65494900746444,358.03668299642777L491.6547974568143,358.0366777041627L491.65487989402436,358.03431701134593Z"></path><path d="M491.6544578531225,358.0342887219397L491.65437541591245,358.0366494147561L491.6542238652628,358.03664412249145L491.6543063024719,358.03428342967436Z"></path><path d="M491.65388133325814,358.0342821408358L491.65379889604856,358.03664283365265L491.65364734539844,358.03663754138654L491.65372978260757,358.03427684857104Z"></path><path d="M491.65330122164414,358.03424833147835L491.65321878443365,358.03660902429533L491.65306723378353,358.03660373202956L491.65314967099357,358.0342430392135Z"></path><path d="M491.6527028903529,358.0342274372895L491.6526204531433,358.036588130106L491.65246890249364,358.0365828378409L491.65255133970277,358.0342221450245Z"></path><path d="M491.6521235426212,358.03420720602094L491.6520411054112,358.03656789883803L491.65188955476196,358.03656260657203L491.6519719919711,358.03420191375585Z"></path><path d="M491.65153792605633,358.03418675584044L491.65145548884766,358.0365474486565L491.651303938198,358.03654215639096L491.65138637540804,358.03418146357376Z"></path><path d="M491.6509556070728,358.03416920513405L491.6508731698632,358.0365298979506L491.6507216192126,358.03652460568594L491.65080405642266,358.03416391286873Z"></path><path d="M491.65039568352404,358.03414686785163L491.6503132463149,358.0365075606694L491.65016169566434,358.03650226840364L491.6502441328744,358.0341415755863Z"></path><path d="M491.64981979349886,358.03412675732943L491.64973735628973,358.03648745014596L491.6495858056405,358.03648215787996L491.64966824284966,358.0341214650641Z"></path><path d="M491.64923637022775,358.03410638373975L491.64915393301817,358.03646707655537L491.6490023823676,358.03646178429165L491.6490848195772,358.03410109147364Z"></path><path d="M491.64867326301646,358.0340993003232L491.6485908258055,358.0364599931406L491.64843927515676,358.0364547008753L491.6485217123659,358.03409400805845Z"></path><path d="M491.64808701607126,358.0340797988198L491.6480045788617,358.0364404916372L491.6478530282111,358.0364351993726L491.6479354654207,358.03407450655516Z"></path><path d="M491.64751006925917,358.03404602321564L491.6474276320496,358.03640671603296L491.6472760813999,358.0364014237674L491.6473585186095,358.034040730951Z"></path><path d="M491.6454722336621,358.0355819407806L491.6453989561419,358.03768033439485L491.6452474054922,358.0376750421285L491.6453206830115,358.0355766485137Z"></path><path d="M491.65553473136197,358.037165247895L491.6554522941524,358.03952594071075L491.65530074350227,358.039520648446L491.6553831807114,358.0371599556304Z"></path><path d="M491.6549438987363,358.03714461556524L491.6548614615267,358.0395053083821L491.6547099108766,358.0395000161167L491.6547923480862,358.03713932329947Z"></path><path d="M491.6543588365789,358.0371241847448L491.6542763993698,358.0394848775611L491.6541248487192,358.03947958529614L491.6542072859288,358.03711889247927Z"></path><path d="M491.65377729017246,358.0371038766963L491.6536948529629,358.0394645695127L491.65354330231276,358.03945927724806L491.6536257395228,358.0370985844312Z"></path><path d="M491.65318570816726,358.03708321819784L491.6531032709577,358.0394439110145L491.65295172030665,358.0394386187495L491.6530341575167,358.03707792593275Z"></path><path d="M491.65260387380977,358.03706290009404L491.6525214366002,358.0394235929109L491.652369885951,358.03941830064514L491.65245232316056,358.03705760782884Z"></path><path d="M491.65202452624953,358.0370426688313L491.6519420890395,358.03940336164874L491.6517905383903,358.03939806938274L491.6518729755994,358.0370373765659Z"></path><path d="M491.65144440849235,358.03702241067265L491.6513619712832,358.0393831034893L491.6512104206331,358.0393778112244L491.6512928578427,358.0370171184077Z"></path><path d="M491.6508642099834,358.0370021496947L491.65078177277337,358.0393628425112L491.6506302221246,358.0393575502452L491.65071265933375,358.0369968574295Z"></path><path d="M491.6503076649369,358.03698271471353L491.65022522772733,358.0393434075296L491.6500736770763,358.0393381152651L491.6501561142868,358.03697742244765Z"></path><path d="M491.64973177491174,358.03696260418997L491.6496493377026,358.03932329700694L491.64949778705295,358.0393180047414L491.64958022426254,358.03695731192477Z"></path><path d="M491.6491428526624,358.0369420385729L491.6490604154533,358.03930273138894L491.6489088648027,358.0392974391235L491.6489913020123,358.0369367463069Z"></path><path d="M491.6485846857804,358.0369225469559L491.64850224857037,358.0392832397721L491.64835069792116,358.0392779475068L491.6484331351303,358.0369172546906Z"></path><path d="M491.6479897565914,358.03690177157034L491.64790731938183,358.0392624643879L491.64775576873126,358.0392571721218L491.64783820594084,358.036896479304Z"></path><path d="M491.647406246675,358.0368813949548L491.64732380946634,358.03924208777164L491.6471722588153,358.0392367955071L491.64725469602536,358.03687610268946Z"></path><path d="M491.6455291779648,358.0339512692875L491.64549253920495,358.0350004660951L491.6453409885553,358.03499517382977L491.6453776273147,358.0339459770223Z"></path><path d="M491.6438259648394,358.03773018946845L491.6451374608487,358.03777598791896L491.64513481471613,358.037851763243L491.64382331870684,358.0378059647933Z"></path><path d="M491.64375405063447,358.0370006485831L491.64506554664285,358.03704644703225L491.6450602543787,358.0371979976826L491.6437487583685,358.0371521992324Z"></path><path d="M491.64377575375283,358.03638568598L491.6450872497621,358.0364314844294L491.6450819574966,358.03658303507996L491.64377046148775,358.0365372366291Z"></path><path d="M491.6437965638279,358.0357820421052L491.6451080598372,358.03582784055413L491.64510276757255,358.0359793912047L491.6437912715628,358.03593359275465Z"></path><path d="M491.64381545172137,358.0352447272809L491.6451269477311,358.0352905257304L491.6451216554656,358.03544207638004L491.6438101594558,358.0353962779308Z"></path><path d="M491.6438369476814,358.034629757443L491.64514844369205,358.03467555589305L491.64514315142605,358.0348271065435L491.64383165541676,358.034781308093Z"></path><path d="M491.64385804777794,358.03402612369666L491.6451695437868,358.0340719221467L491.64516425152215,358.0342234727965L491.6438527555124,358.03417767434667Z"></path><path d="M491.65405301070723,358.03259055773117L491.65510220751366,358.03262719649206L491.6550969152486,358.0327787471417L491.65404771844123,358.0327421083822Z"></path><path d="M491.6581903908709,358.0348219788742L491.6597641860817,358.0348769370138L491.6597588938166,358.0350284876631L491.6581850986054,358.03497352952456Z"></path><path d="M491.65821077202554,358.03423357332133L491.65978456723633,358.0342885314624L491.65977927497124,358.03444008211204L491.65820547976045,358.03438512397213Z"></path><path d="M491.65924591194016,358.0335052828066L491.66108200635335,358.033569400636L491.6610793602208,358.03364517596094L491.6592432658076,358.0335810581321Z"></path><path d="M491.65815172023304,358.035935318121L491.6597255154443,358.03599027626126L491.6597202231792,358.0361418269106L491.6581464279684,358.0360868687716Z"></path><path d="M491.6581707554142,358.03538188196046L491.65974455062496,358.0354368400998L491.65973925836033,358.0355883907497L491.6581654631482,358.0355334326098Z"></path><path d="M491.66052958809087,358.03442275840894L491.6613164856967,358.0344502374784L491.6613111934312,358.03460178812816L491.6605242958253,358.03457430905814Z"></path><path d="M491.66053162446633,358.0385387427458L491.66114870278443,358.03768940730697L491.6612713845698,358.03777854084115L491.6606543062521,358.0386278762811Z"></path><path d="M491.66106084146077,358.0389972216925L491.66188812378596,358.0383508779024L491.6619814845558,358.03847037423884L491.6611542022297,358.03911671802757Z"></path><path d="M491.66138579508697,358.0395655929028L491.6623659017441,358.03918936520654L491.66242024574376,358.03933093616797L491.6614401390866,358.03970716386414Z"></path><path d="M491.661518512014,358.0402003194497L491.6625677088218,358.04023695821L491.66256241655583,358.0403885088592L491.66151321974894,358.04035187009947Z"></path><path d="M491.65955433703357,358.042248520352L491.6595176982737,358.04329771715913L491.6593661476227,358.04329242489405L491.65940278638345,358.0422432280876Z"></path><path d="M491.65806460362546,358.04140128058214L491.6571463960736,358.0419102513399L491.6570728780757,358.0417776213601L491.65799108562715,358.04126865060334Z"></path><path d="M491.6590125949665,358.04210404552464L491.6585855880585,358.0430631187446L491.65844705525933,358.04300143996704L491.65887406216825,358.0420423667491Z"></path><path d="M491.65848891354926,358.041817679525L491.6577465671544,358.0425600259192L491.6576393393416,358.0424527981081L491.658381685736,358.041710451713Z"></path><path d="M491.66033279701014,358.04318813195255L491.66002585457,358.04218416846686L491.66017087151704,358.0421398323367L491.6604778139563,358.0431437958216Z"></path><path d="M491.6612260898655,358.04142534518496L491.6620419659371,358.0420860286008L491.66194653388766,358.042203877367L491.66113065781656,358.04154319395127Z"></path><path d="M491.66147519601054,358.0408006944972L491.6624485873135,358.04119397011254L491.66239178083697,358.04133457107855L491.6614183895317,358.0409412954642Z"></path><path d="M491.66073616978565,358.0418789623445L491.66135324810375,358.04272829778427L491.6612305663175,358.0428174313197L491.6606134880003,358.04196809587893Z"></path><path d="M491.65775795988793,358.03723713814577L491.6579805378151,358.0370980560218L491.65802071709595,358.03716235631214L491.65779813916834,358.0373014384362Z"></path><path d="M491.6532389618569,358.0322198604159L491.6532328553967,358.0323947265513L491.6531162779729,358.0323906555792L491.6531223844331,358.0322157894443Z"></path><path d="M491.6575393944695,358.0373957665415L491.6577517283299,358.03724149696245L491.65779629509734,358.03730283785444L491.6575839612369,358.0374571074344Z"></path><path d="M491.6573339000133,358.03755715224315L491.6575378690318,358.03739198138953L491.65758558505604,358.03745090577274L491.6573816160385,358.03761607662705Z"></path><path d="M491.6571451701989,358.0377285112504L491.65734021530943,358.037552891843L491.6573909498047,358.0376092382086L491.6571959046946,358.03778485761654Z"></path><path d="M491.6577835328608,358.0408139034629L491.6567648811474,358.0410678818607L491.65672819537895,358.0409207432797L491.6577468470923,358.04066676488196Z"></path><path d="M491.65769447268895,358.0402086410011L491.65664527588206,358.04017200224155L491.6566505681476,358.04002045159075L491.65769976495494,358.0400570903514Z"></path><path d="M491.64361144227314,358.0329421504508L491.6441360406766,358.0329604698296L491.64413339454404,358.03303624515536L491.6436087961406,358.0330179257745Z"></path><path d="M491.64286481350655,358.0334398944535L491.6436517111115,358.0334673735225L491.6436471312668,358.03359852312406L491.6428602336614,358.03357104405336Z"></path><path d="M491.65533765247346,358.03096399597507L491.6553742912329,358.0299147991673L491.65545006655793,358.0299174452998L491.65541342779807,358.03096664210807Z"></path><path d="M491.6552794763106,358.0298685888074L491.65475487790764,358.02985026942724L491.6547575240402,358.029774494103L491.6552821224441,358.0297928134828Z"></path><path d="M491.65474937708086,358.0298581840075L491.65473105770116,358.03038278241047L491.65465528237564,358.0303801362777L491.6546736017558,358.02985553787335Z"></path><path d="M491.65552031236575,358.03538909422514L491.65552176958363,358.03538914511284L491.6555217186965,358.0353906023306L491.6555202614786,358.0353905514438Z"></path><path d="M491.6549154093668,358.03536452490005L491.6549168665847,358.03536457578764L491.65491681569665,358.03536603300483L491.6549153584788,358.03536598211906Z"></path><path d="M491.6543469917474,358.03533168069794L491.6543484489648,358.03533173158473L491.6543483980781,358.03533318880216L491.6543469408598,358.03533313791536Z"></path><path d="M491.6537649035954,358.03532688620624L491.65376636081373,358.0353269370927L491.65376630992614,358.0353283943107L491.65376485270826,358.03532834342366Z"></path><path d="M491.65318986197326,358.0352967969343L491.6531913191916,358.03529684782075L491.65319126830354,358.03529830503896L491.6531898110861,358.0352982541518Z"></path><path d="M491.65259196932175,358.0352721043821L491.6525934265396,358.0352721552697L491.65259337565294,358.0352736124871L491.65259191843506,358.03527356159964Z"></path><path d="M491.652012909381,358.0352436367648L491.6520143665989,358.03524368765136L491.65201431571086,358.035245144869L491.65201285849344,358.03524509398164Z"></path><path d="M491.65143065992925,358.0352270583053L491.6514321171476,358.03522710919185L491.65143206626044,358.0352285664094L491.65143060904256,358.0352285155227Z"></path><path d="M491.65084357826527,358.0352073252327L491.65084503548223,358.0352073761202L491.65084498459555,358.0352088333375L491.65084352737813,358.03520878245047Z"></path><path d="M491.65028556449215,358.03518562121235L491.6502870217096,358.0351856721006L491.65028697082244,358.03518712931816L491.6502855136041,358.0351870784308Z"></path><path d="M491.64970985030686,358.03516927112116L491.6497113075252,358.0351693220083L491.64971125663806,358.0351707792262L491.64970979942063,358.0351707283386Z"></path><path d="M491.6485601339882,358.0351408971684L491.64856159120654,358.03514094805575L491.6485615403194,358.03514240527386L491.64856008310153,358.03514235438615Z"></path><path d="M491.647974652275,358.03512207280323L491.6479761094929,358.03512212368946L491.6479760586053,358.03512358090654L491.6479746013879,358.03512353001963Z"></path><path d="M491.6473972209792,358.0350885985556L491.6473986781966,358.03508864944354L491.64739862730994,358.0350901066612L491.6473971700925,358.0350900557736Z"></path><path d="M491.64543724655414,358.03446349811065L491.6454387037711,358.03446354899813L491.6454386528849,358.03446500621635L491.645437195667,358.0344649553283Z"></path><path d="M491.64535875379534,358.03662767633944L491.6453602110132,358.0366277272261L491.6453601601256,358.0366291844434L491.6453587029082,358.03662913355697Z"></path><path d="M491.64451698624225,358.03412682580745L491.64451844346013,358.0341268766954L491.64451839257345,358.0341283339129L491.64451693535557,358.034128283026Z"></path><path d="M491.64449295714167,358.0347313704623L491.64449441436045,358.0347314213508L491.64449436347286,358.03473287856843L491.644492906255,358.03473282768016Z"></path><path d="M491.6444777104384,358.0353455453386L491.64447916765585,358.03534559622574L491.6444791167687,358.0353470534433L491.6444776595513,358.03534700255614Z"></path><path d="M491.64445621050845,358.0358776624661L491.64445766772633,358.0358777133541L491.64445761683965,358.0358791705721L491.64445615962177,358.03587911968475Z"></path><path d="M491.6444332287042,358.036481230503L491.6444346859216,358.03648128139093L491.6444346350345,358.0364827386078L491.64443317781615,358.0364826877203Z"></path><path d="M491.6444159226926,358.0370963466563L491.6444173799109,358.03709639754436L491.6444173290247,358.03709785476167L491.64441587180636,358.0370978038741Z"></path><path d="M491.644488868008,358.03779631474015L491.64449032522543,358.0377963656275L491.6444902743383,358.03779782284494L491.6444888171204,358.037797771958Z"></path><path d="M491.6472865544083,358.03806518286524L491.6472880116262,358.0380652337516L491.64728796073814,358.0380666909698L491.6472865035207,358.0380666400828Z"></path><path d="M491.6478756490924,358.0380853919685L491.6478771063098,358.0380854428561L491.6478770554231,358.03808690007327L491.6478755982048,358.03808684918613Z"></path><path d="M491.6484701546565,358.0381098003179L491.6484716118739,358.0381098512041L491.64847156098676,358.0381113084228L491.6484701037689,358.0381112575359Z"></path><path d="M491.6490274701914,358.03812581789623L491.64902892740884,358.03812586878325L491.6490288765217,358.0381273260001L491.6490274193038,358.038127275114Z"></path><path d="M491.6496165479248,358.0381419310388L491.6496180051422,358.0381419819262L491.6496179542555,358.0381434391443L491.6496164970381,358.0381433882568Z"></path><path d="M491.650187230935,358.03816712737625L491.6501886881524,358.03816717826226L491.6501886372657,358.0381686354817L491.6501871800483,358.0381685845938Z"></path><path d="M491.65074895473936,358.0381822857039L491.65075041195723,358.0381823365915L491.65075036107055,358.03818379380914L491.6507489038522,358.03818374292234Z"></path><path d="M491.65132877369797,358.0382069909281L491.6513302309154,358.0382070418152L491.6513301800287,358.03820849903275L491.6513287228113,358.03820844814663Z"></path><path d="M491.6519092710055,358.0382228048411L491.6519107282229,358.0382228557286L491.65191067733576,358.03822431294554L491.6519092201179,358.03822426205943Z"></path><path d="M491.6524834264101,358.0382454894909L491.6524848836275,358.0382455403777L491.6524848327408,358.03824699759537L491.6524833755225,358.0382469467088Z"></path><path d="M491.6530636199691,358.0382594675681L491.6530650771874,358.0382595184552L491.6530650262994,358.03826097567344L491.65306356908195,358.0382609247861Z"></path><path d="M491.65365693467584,358.0382838343311L491.65365839189326,358.03828388521833L491.65365834100703,358.03828534243587L491.65365688378915,358.03828529154885Z"></path><path d="M491.6542370363045,358.03830044416975L491.65423849352237,358.03830049505655L491.6542384426357,358.0383019522742L491.6542369854178,358.03830190138774Z"></path><path d="M491.65483265085504,358.0383248911104L491.6548341080734,358.03832494199685L491.6548340571867,358.03832639921484L491.65483259996836,358.0383263483269Z"></path><path d="M491.6554145313494,358.0383407530553L491.6554159885668,358.0383408039421L491.65541593767966,358.0383422611595L491.65541448046133,358.0383422102723Z"></path><path d="M491.65318138329076,358.032304659921L491.6531828405091,358.0323047108068L491.65318278962195,358.0323061680249L491.6531813324041,358.0323061171381Z"></path><path d="M491.66016120726226,358.03356745635654L491.6601626644806,358.03356750724333L491.66016261359255,358.03356896446087L491.6601611563751,358.0335689135742Z"></path><path d="M491.66091315385074,358.0345093599267L491.66091461106816,358.03450941081417L491.6609145601815,358.03451086803227L491.66091310296406,358.034510817144Z"></path><path d="M491.6589952051636,358.03433365782394L491.658996662381,358.0343337087111L491.65899661149433,358.03433516592906L491.6589951542769,358.0343351150432Z"></path><path d="M491.6589742715464,358.034924635171L491.65897572876474,358.0349246860584L491.65897567787715,358.03492614327547L491.6589742206593,358.0349260923882Z"></path><path d="M491.6589549010032,358.0354793349601L491.6589563582211,358.0354793858471L491.65895630733394,358.03548084306567L491.65895485011606,358.0354807921782Z"></path><path d="M491.65893531598795,358.03604017642886L491.6589367732063,358.0360402273162L491.65893672231823,358.0360416845342L491.6589352650999,358.03604163364673Z"></path><path d="M491.6615185668843,358.0387365348015L491.6615200241022,358.03873658568864L491.6615199732141,358.0387380429063L491.66151851599625,358.0387379920194Z"></path><path d="M491.6580669581135,358.0421307194199L491.6580684153314,358.04213077030784L491.6580683644438,358.04213222752594L491.6580669072264,358.0421321766379Z"></path><path d="M491.6491262853774,358.0351460774152L491.6491277425948,358.0351461283035L491.6491276917077,358.03514758552126L491.64912623449027,358.03514753463423Z"></path><path d="M491.6438684889549,358.03299016498283L491.6438699461728,358.03299021586975L491.6438698952861,358.03299167308796L491.6438684380678,358.0329916222005Z"></path><path d="M491.65501656179777,358.02981499933446L491.6550180190152,358.02981505022103L491.6550179681285,358.0298165074397L491.6550165109106,358.0298164565538Z"></path><path d="M491.6414631436646,358.04308756686544L491.6630034219461,358.0438397699585L491.66370393345915,358.0237797448143L491.64216365517905,358.02302754172194ZM1638.685316939625,-4328.388980388641L1638.685316939625,-1054.1204695994898L1638.685316939625,46.155524130838785L1638.685316939625,763.4163259178861L1638.685316939625,1368.2159046601532L1638.685316939625,1973.0154834024202L1638.685316939625,2690.2762851894677L1638.685316939625,3790.552278919796L1638.685316939625,5096.38898038469L-4200.38898038469,5096.38898038469L-4200.38898038469,-4328.38898038469Z"></path></g></svg>